<svg width="150" height="35" viewBox="0 0 150 35" fill="none" xmlns="http://www.w3.org/2000/svg">
<path d="M0.19931 8.24314C0.0859914 6.45599 1.30507 4.8693 3.02436 4.56626L24.835 0.721917C26.9543 0.348356 28.8771 2.05802 28.8197 4.26497L28.1121 31.4436C28.0612 33.3983 26.4603 34.931 24.5575 34.8468L4.87877 33.9763C3.13993 33.8993 1.73671 32.49 1.62365 30.7069L0.19931 8.24314Z" fill="#B67E44"/>
<mask id="mask0_20_17" style="mask-type:alpha" maskUnits="userSpaceOnUse" x="0" y="0" width="29" height="35">
<path d="M0.197685 8.23823C0.0852681 6.45308 1.30207 4.86826 3.01899 4.56356L24.6348 0.72743C26.7551 0.351147 28.6805 2.06083 28.6234 4.26916L27.9208 31.4419C27.8702 33.3972 26.2686 34.9305 24.3651 34.8457L4.86683 33.9772C3.1278 33.8997 1.72491 32.4897 1.61261 30.7063L0.197685 8.23823Z" fill="#D9D9D9"/>
</mask>
<g mask="url(#mask0_20_17)">
<path d="M22.4026 8.68045V0.625C22.4026 0.555965 22.4571 0.5 22.5243 0.5H25.6899C25.7572 0.5 25.8117 0.555965 25.8117 0.625V8.65895C25.8117 8.7754 25.6703 8.8286 25.597 8.73975L24.2702 7.1311C24.2229 7.0738 24.1375 7.0719 24.0878 7.12705L22.6138 8.7653C22.5386 8.84885 22.4026 8.79425 22.4026 8.68045Z" fill="white" stroke="white"/>
</g>
<path d="M49.1883 23.461C49.1883 24.1563 49.0588 24.8086 48.8002 25.418C48.5415 26.0274 48.1877 26.5625 47.7387 27.0235C47.2974 27.4766 46.7799 27.836 46.1863 28.1016C45.5928 28.3672 44.9574 28.5 44.2802 28.5H36.0961V11.6953H44.2802C44.9574 11.6953 45.5928 11.8281 46.1863 12.0938C46.7799 12.3594 47.2974 12.7227 47.7387 13.1836C48.1877 13.6367 48.5415 14.168 48.8002 14.7774C49.0588 15.3867 49.1883 16.0391 49.1883 16.7344C49.1883 17.0469 49.1465 17.3672 49.0627 17.6953C48.9789 18.0235 48.8611 18.3399 48.7091 18.6446C48.5567 18.9492 48.3741 19.2266 48.161 19.4766C47.948 19.7266 47.7121 19.9336 47.4534 20.0977C47.7197 20.2461 47.9594 20.4492 48.1725 20.7071C48.3855 20.9571 48.5682 21.2344 48.7203 21.5391C48.8728 21.8438 48.9867 22.1641 49.0627 22.5C49.1465 22.8281 49.1883 23.1485 49.1883 23.461ZM39.372 25.1367H44.2802C44.5084 25.1367 44.7215 25.0938 44.9194 25.0078C45.1172 24.9219 45.2884 24.8047 45.433 24.6563C45.5852 24.5 45.7032 24.3203 45.7868 24.1172C45.8706 23.9141 45.9124 23.6953 45.9124 23.461C45.9124 23.2266 45.8706 23.0078 45.7868 22.8047C45.7032 22.6016 45.5852 22.4258 45.433 22.2774C45.2884 22.1211 45.1172 22 44.9194 21.9141C44.7215 21.8281 44.5084 21.7852 44.2802 21.7852H39.372V25.1367ZM39.372 18.4219H44.2802C44.5084 18.4219 44.7215 18.3789 44.9194 18.293C45.1172 18.2071 45.2884 18.0899 45.433 17.9414C45.5852 17.7852 45.7032 17.6055 45.7868 17.4024C45.8706 17.1914 45.9124 16.9688 45.9124 16.7344C45.9124 16.5 45.8706 16.2813 45.7868 16.0781C45.7032 15.875 45.5852 15.6992 45.433 15.5508C45.2884 15.3946 45.1172 15.2735 44.9194 15.1875C44.7215 15.1016 44.5084 15.0586 44.2802 15.0586H39.372V18.4219ZM63.1481 22.1133C63.1481 23.0508 62.9844 23.9258 62.6572 24.7383C62.3299 25.543 61.8848 26.2422 61.3218 26.836C60.7588 27.4219 60.0965 27.8867 59.3357 28.2305C58.5823 28.5664 57.7719 28.7344 56.9046 28.7344C56.0445 28.7344 55.2341 28.5664 54.4734 28.2305C53.72 27.8867 53.0577 27.4219 52.4869 26.836C51.9239 26.2422 51.4788 25.543 51.1515 24.7383C50.8242 23.9258 50.6606 23.0508 50.6606 22.1133C50.6606 21.1602 50.8242 20.2774 51.1515 19.4649C51.4788 18.6524 51.9239 17.9531 52.4869 17.3672C53.0577 16.7735 53.72 16.3086 54.4734 15.9727C55.2341 15.6367 56.0445 15.4688 56.9046 15.4688C57.7719 15.4688 58.5823 15.6289 59.3357 15.9492C60.0965 16.2617 60.7588 16.711 61.3218 17.2969C61.8848 17.875 62.3299 18.5742 62.6572 19.3946C62.9844 20.2071 63.1481 21.1133 63.1481 22.1133ZM60.0093 22.1133C60.0093 21.5977 59.9255 21.1328 59.758 20.7188C59.5982 20.2969 59.3776 19.9375 59.0961 19.6406C58.8146 19.336 58.4835 19.1055 58.1031 18.9492C57.7301 18.7852 57.3307 18.7031 56.9046 18.7031C56.4784 18.7031 56.0752 18.7852 55.6943 18.9492C55.3218 19.1055 54.9945 19.336 54.713 19.6406C54.4388 19.9375 54.2221 20.2969 54.0624 20.7188C53.9026 21.1328 53.8228 21.5977 53.8228 22.1133C53.8228 22.5977 53.9026 23.0469 54.0624 23.461C54.2221 23.875 54.4388 24.2344 54.713 24.5391C54.9945 24.8438 55.3218 25.086 55.6943 25.2656C56.0752 25.4375 56.4784 25.5235 56.9046 25.5235C57.3307 25.5235 57.7301 25.4414 58.1031 25.2774C58.4835 25.1133 58.8146 24.8828 59.0961 24.586C59.3776 24.2891 59.5982 23.9297 59.758 23.5078C59.9255 23.086 60.0093 22.6211 60.0093 22.1133ZM76.6856 22.1133C76.6856 23.0508 76.5219 23.9258 76.1947 24.7383C75.8674 25.543 75.4223 26.2422 74.8593 26.836C74.2963 27.4219 73.634 27.8867 72.8732 28.2305C72.1198 28.5664 71.3094 28.7344 70.4421 28.7344C69.582 28.7344 68.7716 28.5664 68.0104 28.2305C67.2575 27.8867 66.5952 27.4219 66.0244 26.836C65.4614 26.2422 65.0163 25.543 64.689 24.7383C64.3617 23.9258 64.1981 23.0508 64.1981 22.1133C64.1981 21.1602 64.3617 20.2774 64.689 19.4649C65.0163 18.6524 65.4614 17.9531 66.0244 17.3672C66.5952 16.7735 67.2575 16.3086 68.0104 15.9727C68.7716 15.6367 69.582 15.4688 70.4421 15.4688C71.3094 15.4688 72.1198 15.6289 72.8732 15.9492C73.634 16.2617 74.2963 16.711 74.8593 17.2969C75.4223 17.875 75.8674 18.5742 76.1947 19.3946C76.5219 20.2071 76.6856 21.1133 76.6856 22.1133ZM73.5468 22.1133C73.5468 21.5977 73.463 21.1328 73.2955 20.7188C73.1357 20.2969 72.9151 19.9375 72.6336 19.6406C72.3517 19.336 72.021 19.1055 71.6406 18.9492C71.2676 18.7852 70.8682 18.7031 70.4421 18.7031C70.0159 18.7031 69.6127 18.7852 69.2318 18.9492C68.8593 19.1055 68.532 19.336 68.2505 19.6406C67.9763 19.9375 67.7596 20.2969 67.5999 20.7188C67.4401 21.1328 67.3598 21.5977 67.3598 22.1133C67.3598 22.5977 67.4401 23.0469 67.5999 23.461C67.7596 23.875 67.9763 24.2344 68.2505 24.5391C68.532 24.8438 68.8593 25.086 69.2318 25.2656C69.6127 25.4375 70.0159 25.5235 70.4421 25.5235C70.8682 25.5235 71.2676 25.4414 71.6406 25.2774C72.021 25.1133 72.3517 24.8828 72.6336 24.586C72.9151 24.2891 73.1357 23.9297 73.2955 23.5078C73.463 23.086 73.5468 22.6211 73.5468 22.1133ZM81.5479 28.5H78.4091V10.9571H81.5479V22.0196L86.1935 15.9727H89.7779L85.7255 21.1992L89.7779 28.5H86.1935L83.7166 23.9414L81.5479 26.8946V28.5ZM90.3828 16.7344C90.3828 16.0391 90.5124 15.3867 90.771 14.7774C91.0296 14.168 91.3797 13.6367 91.821 13.1836C92.27 12.7227 92.7911 12.3594 93.3848 12.0938C93.9784 11.8281 94.6135 11.6953 95.2909 11.6953H102.802V15.0586H95.2909C95.0625 15.0586 94.8497 15.1016 94.652 15.1875C94.4538 15.2735 94.2789 15.3946 94.1265 15.5508C93.9823 15.6992 93.8679 15.875 93.7841 16.0781C93.7004 16.2813 93.6585 16.5 93.6585 16.7344C93.6585 16.9688 93.7004 17.1914 93.7841 17.4024C93.8679 17.6055 93.9823 17.7852 94.1265 17.9414C94.2789 18.0899 94.4538 18.2071 94.652 18.293C94.8497 18.3789 95.0625 18.4219 95.2909 18.4219H98.5671C99.244 18.4219 99.8796 18.5547 100.473 18.8203C101.074 19.0781 101.595 19.4375 102.037 19.8985C102.486 20.3516 102.836 20.8867 103.087 21.5039C103.346 22.1133 103.475 22.7656 103.475 23.461C103.475 24.1563 103.346 24.8086 103.087 25.418C102.836 26.0274 102.486 26.5625 102.037 27.0235C101.595 27.4766 101.074 27.836 100.473 28.1016C99.8796 28.3672 99.244 28.5 98.5671 28.5H91.296V25.1367H98.5671C98.795 25.1367 99.0083 25.0938 99.206 25.0078C99.4038 24.9219 99.5752 24.8047 99.7198 24.6563C99.8718 24.5 99.9896 24.3203 100.073 24.1172C100.157 23.9141 100.199 23.6953 100.199 23.461C100.199 23.2266 100.157 23.0078 100.073 22.8047C99.9896 22.6016 99.8718 22.4258 99.7198 22.2774C99.5752 22.1211 99.4038 22 99.206 21.9141C99.0083 21.8281 98.795 21.7852 98.5671 21.7852H95.2909C94.6135 21.7852 93.9784 21.6524 93.3848 21.3867C92.7911 21.1211 92.27 20.7617 91.821 20.3086C91.3797 19.8477 91.0296 19.3125 90.771 18.7031C90.5124 18.086 90.3828 17.4297 90.3828 16.7344ZM108.417 28.5H105.301V10.9571H108.417V16.5C108.79 16.211 109.175 16.0078 109.57 15.8906C109.966 15.7656 110.369 15.7031 110.78 15.7031C111.534 15.7031 112.241 15.8516 112.903 16.1485C113.566 16.4375 114.14 16.8399 114.627 17.3555C115.122 17.8633 115.51 18.461 115.791 19.1485C116.081 19.8281 116.225 20.5547 116.225 21.3281V28.5H113.086V21.3281H113.109C113.109 21 113.048 20.6914 112.926 20.4024C112.804 20.1055 112.637 19.8477 112.424 19.6289C112.211 19.4102 111.963 19.2383 111.682 19.1133C111.4 18.9883 111.1 18.9258 110.78 18.9258C110.453 18.9258 110.145 18.9883 109.856 19.1133C109.567 19.2383 109.315 19.4102 109.102 19.6289C108.889 19.8477 108.722 20.1055 108.6 20.4024C108.478 20.6914 108.417 21 108.417 21.3281V28.5ZM123.313 25.4297C123.435 25.4688 123.557 25.4961 123.678 25.5117C123.8 25.5196 123.922 25.5235 124.044 25.5235C124.348 25.5235 124.641 25.4805 124.923 25.3946C125.204 25.3086 125.467 25.1875 125.71 25.0313C125.962 24.8672 126.182 24.6719 126.372 24.4453C126.57 24.211 126.73 23.9531 126.852 23.6719L129.134 26.0274C128.845 26.4492 128.511 26.8281 128.13 27.1641C127.757 27.5 127.35 27.7852 126.909 28.0196C126.475 28.2539 126.015 28.4297 125.528 28.5469C125.048 28.6719 124.554 28.7344 124.044 28.7344C123.184 28.7344 122.373 28.5703 121.613 28.2422C120.859 27.9141 120.197 27.4571 119.626 26.8711C119.064 26.2852 118.618 25.5899 118.291 24.7852C117.964 23.9727 117.8 23.0821 117.8 22.1133C117.8 21.1211 117.964 20.2149 118.291 19.3946C118.618 18.5742 119.064 17.875 119.626 17.2969C120.197 16.7188 120.859 16.2696 121.613 15.9492C122.373 15.6289 123.184 15.4688 124.044 15.4688C124.554 15.4688 125.052 15.5313 125.539 15.6563C126.026 15.7813 126.487 15.961 126.92 16.1953C127.362 16.4297 127.772 16.7188 128.153 17.0625C128.533 17.3985 128.868 17.7774 129.157 18.1992L123.313 25.4297ZM124.911 18.8321C124.767 18.7774 124.622 18.7422 124.478 18.7266C124.34 18.711 124.196 18.7031 124.044 18.7031C123.618 18.7031 123.214 18.7852 122.834 18.9492C122.461 19.1055 122.134 19.3321 121.852 19.6289C121.578 19.9258 121.361 20.2852 121.201 20.7071C121.042 21.1211 120.962 21.5899 120.962 22.1133C120.962 22.2305 120.966 22.3633 120.973 22.5117C120.989 22.6602 121.008 22.8125 121.031 22.9688C121.061 23.1172 121.095 23.2617 121.133 23.4024C121.171 23.543 121.22 23.668 121.281 23.7774L124.911 18.8321ZM133.872 28.5H130.733V10.9571H133.872V28.5ZM140.218 28.5H137.102V19.1367H135.583V15.9492H137.102V15.3516C137.102 14.5781 137.243 13.8516 137.524 13.1719C137.813 12.4922 138.205 11.9024 138.7 11.4024C139.202 10.8946 139.784 10.4961 140.446 10.2071C141.108 9.91017 141.816 9.76172 142.569 9.76172H144.909V12.9492H142.569C142.235 12.9492 141.922 13.0117 141.633 13.1367C141.352 13.2539 141.104 13.4219 140.891 13.6406C140.686 13.8516 140.522 14.1055 140.401 14.4024C140.279 14.6914 140.218 15.0078 140.218 15.3516V15.9492H144.042V19.1367H140.218V28.5Z" fill="black"/>
<path d="M20.9416 23.461C20.9416 24.1563 20.8122 24.8086 20.5535 25.418C20.2948 26.0274 19.9409 26.5625 19.4919 27.0235C19.0506 27.4766 18.5332 27.836 17.9396 28.1016C17.3461 28.3672 16.7107 28.5 16.0334 28.5H7.8493V11.6953H16.0334C16.7107 11.6953 17.3461 11.8281 17.9396 12.0938C18.5332 12.3594 19.0506 12.7227 19.4919 13.1836C19.9409 13.6367 20.2948 14.168 20.5535 14.7774C20.8122 15.3867 20.9416 16.0391 20.9416 16.7344C20.9416 17.0469 20.8997 17.3672 20.816 17.6953C20.7323 18.0235 20.6144 18.3399 20.4622 18.6446C20.31 18.9492 20.1273 19.2266 19.9143 19.4766C19.7012 19.7266 19.4653 19.9336 19.2066 20.0977C19.4729 20.2461 19.7126 20.4492 19.9257 20.7071C20.1388 20.9571 20.3214 21.2344 20.4736 21.5391C20.6258 21.8438 20.7399 22.1641 20.816 22.5C20.8997 22.8281 20.9416 23.1485 20.9416 23.461ZM11.1252 25.1367H16.0334C16.2617 25.1367 16.4747 25.0938 16.6726 25.0078C16.8704 24.9219 17.0417 24.8047 17.1863 24.6563C17.3385 24.5 17.4564 24.3203 17.5401 24.1172C17.6238 23.9141 17.6656 23.6953 17.6656 23.461C17.6656 23.2266 17.6238 23.0078 17.5401 22.8047C17.4564 22.6016 17.3385 22.4258 17.1863 22.2774C17.0417 22.1211 16.8704 22 16.6726 21.9141C16.4747 21.8281 16.2617 21.7852 16.0334 21.7852H11.1252V25.1367ZM11.1252 18.4219H16.0334C16.2617 18.4219 16.4747 18.3789 16.6726 18.293C16.8704 18.2071 17.0417 18.0899 17.1863 17.9414C17.3385 17.7852 17.4564 17.6055 17.5401 17.4024C17.6238 17.1914 17.6656 16.9688 17.6656 16.7344C17.6656 16.5 17.6238 16.2813 17.5401 16.0781C17.4564 15.875 17.3385 15.6992 17.1863 15.5508C17.0417 15.3946 16.8704 15.2735 16.6726 15.1875C16.4747 15.1016 16.2617 15.0586 16.0334 15.0586H11.1252V18.4219Z" fill="white"/>
</svg>
